<?xml version="1.0" encoding="utf-8"?>
<!-- Generator: Adobe Adobe Illustrator 24.2.0, SVG Export Plug-In . SVG Version: 6.00 Build 0)  -->
<svg version="1.1" id="Layer_1" xmlns="http://www.w3.org/2000/svg" xmlns:xlink="http://www.w3.org/1999/xlink" x="0px" y="0px"
	 width="1200px" height="1680px" viewBox="0 0 1200 1680" style="enable-background:new 0 0 1200 1680;" xml:space="preserve">
<style type="text/css">
	.st0{fill:#3F660C;}
	.st1{fill:#498200;}
	.st2{fill:#170F05;}
	.st3{fill:#4C4C4E;}
	.st4{fill:#D1CCD2;}
	.st5{fill:#433E42;}
	.st6{fill:#D4CFD5;}
	.st7{fill:#2D282C;}
	.st8{fill:#141412;}
	.st9{fill:#E3E2E8;}
	.st10{fill:#6B6863;}
	.st11{fill:#676975;}
	.st12{fill:#4C4044;}
	.st13{fill:#221912;}
	.st14{fill:#375411;}
	.st15{fill:#274007;}
	.st16{fill:#FFFFFF;}
	.st17{fill:#617548;}
	.st18{fill:#FFFFFF;stroke:#000000;stroke-width:0.4559;stroke-miterlimit:10;}
	.st19{fill:#FFFFFF;stroke:#000000;stroke-width:22.7955;stroke-miterlimit:10;}
	.st20{opacity:0.3412;fill:#AFDCFA;stroke:#000000;stroke-width:9.1182;stroke-miterlimit:10;enable-background:new    ;}
	.st21{opacity:0.3412;enable-background:new    ;}
	.st22{fill:#D40000;}
</style>
<g>
	<g>
		<g>
			<polygon class="st0" points="299.03,1262.89 316,1053.23 807.39,899.89 700.27,1262.89 			"/>
			<path class="st1" d="M285.1,513.46l286.3-165.67l244.9,108.95l-37.33,313.62l62.86,5.1l51.1,45.04l-9.7,93.65l-57.28,5.4
				l-47.66,103.75l-18.39-87.51c0,0-37.62,78.16-67.91,114.83c-33.27,40.27-87.02,41.95-87.02,41.95s-32.46,76.21-80.72,97.55
				c-38.93,17.22-144.12,11.18-181.15-10.55c-20.2-11.88-47.45-98.85-47.45-98.85l-37.88-96.32l-14.11-298.03L285.1,513.46z"/>
			<polygon class="st2" points="262.72,798.62 288.04,602.46 237.39,602.46 			"/>
			<polygon class="st3" points="237.39,602.46 212.12,798.62 262.72,798.62 			"/>
			<polygon class="st4" points="216.99,760.85 205.77,576.32 239.54,506.28 280.65,602.46 			"/>
			<polygon class="st5" points="280.65,622.01 239.54,506.28 275.36,350.41 363.96,468.96 			"/>
			<polygon class="st6" points="275.36,350.41 363.96,471.29 590.38,400.16 			"/>
			<polygon class="st7" points="275.36,350.41 432.87,375.31 501.82,273 			"/>
			<polygon class="st8" points="683.73,458.27 680.54,316.06 934.25,485.49 754.02,553.6 			"/>
			<polygon class="st9" points="754.02,553.6 886.42,503.56 974.23,640.72 795.47,781.05 			"/>
			<polygon class="st10" points="432.87,375.31 501.82,273 709.01,301.51 683.73,458.27 			"/>
			<polygon class="st11" points="704.22,331.36 754.02,553.6 922.62,404.96 			"/>
			<polygon class="st12" points="974.23,640.72 795.47,781.05 890.54,843.51 			"/>
			<polygon class="st13" points="759.9,935.73 719.93,700.56 754.02,553.6 800.05,784.07 			"/>
			<polygon class="st14" points="789.13,929.49 821.29,826.59 859.8,866.98 824.49,882.62 			"/>
			<polygon class="st11" points="363.96,542.52 354.76,508.21 530.04,537.91 485.86,587.36 			"/>
			<g>
				<g>
					<path class="st15" d="M302.9,575.93c0,0-69.58-52.91-32.08-57.96c59.46-7.97,256.57,73.01,256.57,73.01l-2.6,56.03
						L302.9,575.93z"/>
					<path class="st15" d="M312.14,736.15c0,0-62.61,55.29-24.44,55.44c60.55,0.2,247.08-94.89,247.08-94.89l-9.99-49.7
						L312.14,736.15z"/>
				</g>
				<polygon class="st16" points="524.79,647.01 306.43,577.02 306.43,741.45 				"/>
				<ellipse transform="matrix(1 -6.861540e-03 6.861540e-03 1 -4.4984 2.1182)" cx="306.46" cy="656.64" rx="30.28" ry="70.69"/>
				
					<ellipse transform="matrix(0.9999 -0.0173 0.0173 0.9999 -11.3314 5.1073)" class="st16" cx="290.35" cy="659.3" rx="8.11" ry="38.95"/>
			</g>
			<polygon class="st17" points="471,771.64 498.75,633.89 524.24,639.68 496.53,777.43 			"/>
			<g>
				<g>
					<path class="st14" d="M439.42,895.83L522.48,589l42.08,15c0,0,80.79,232.94,13.9,278.62
						C559.81,895.29,439.42,895.83,439.42,895.83z"/>
					<polygon class="st17" points="521.89,591.07 343.09,828.81 439.42,895.83 					"/>
				</g>
				<path d="M499.97,869.8c0,0,54.25,16.04,72.35,2.33c11.46-8.71,28.72-43.01,14.53-47.91C564.51,816.44,499.97,869.8,499.97,869.8
					z"/>
				<ellipse transform="matrix(0.6036 -0.7973 0.7973 0.6036 -510.6713 653.9709)" cx="402.32" cy="840.53" rx="16.07" ry="44.15"/>
			</g>
			<path class="st11" d="M584.71,639.88c-16.38-59.79-39.39-154.38-4.2-178.79c35.48-24.6,88.98,37.82,143.49,95.88
				c16.46,17.52-93.01,5.59-93.01,5.59S590.72,661.91,584.71,639.88z"/>
			<path class="st15" d="M593.78,707.74c-18.43-48.81-3.4-234.13-3.4-234.13s156.76,93.75,176.58,144.78
				c18.22,46.97-4.66,193.69-4.66,193.69S610.7,752.59,593.78,707.74z"/>
			<path class="st18" d="M604.24,699.92c-17.68-47.67-6.42-211.55-6.42-211.55s138.24,89,156.21,130.33
				c22.72,52.27,1.97,179.08,1.97,179.08S623.55,751.99,604.24,699.92z"/>
			<ellipse class="st19" cx="680.54" cy="658.79" rx="59.29" ry="62.86"/>
			<rect x="229.12" y="561.03" class="st20" width="154.11" height="199.82"/>
			<ellipse class="st20" cx="679.49" cy="660.97" rx="109.1" ry="115.63"/>
			<rect x="383.23" y="622.75" class="st21" width="191.48" height="10.05"/>
			<g>
				<g>
					<path class="st22" d="M288.04,981.17l40.73-35.29c0,0,21.71-20.29,31.79-20.39c11.72-0.1,37.54,22.92,37.54,22.92l29.18,30.59
						l38.04-18.71l27.63-12.33c0,0,31.45-16.48,42.75-14.45c11.72,2.13,32.33,28.91,32.33,28.91l22.09,24.8l22.68,23.96
						c0,0-45.23,30.69-61.64,37.47c-11.17,4.65-35.32,11.63-47.79,12.33c-14.91,0.84-45.73-0.69-59.46-5.54
						c-7.6-2.67-26.58-16.14-26.58-16.14s-33.8,12.13-45.9,12.33c-10.83,0.15-32.63-4.95-41.7-9.75
						c-8.27-4.36-23.39-15.49-28.18-22.52C295.72,1010.67,288.04,981.17,288.04,981.17z"/>
				</g>
				<polygon points="291.65,982.26 361.44,988.69 427.62,1002.16 522.65,1004.48 609.07,1011.86 521.68,1007.06 427.28,1005.22 
					361.23,991.41 				"/>
			</g>
			<polygon class="st15" points="574.76,1068.88 626.03,1017.5 621.29,884.25 630.57,1019.68 			"/>
			<polygon class="st15" points="278.88,981.86 306.18,852.52 282.96,983.25 285.64,1017.05 			"/>
			<polygon class="st15" points="462.18,486.24 546.58,500.49 462.6,493.07 436.39,504.11 			"/>
			<polygon class="st15" points="512.11,460.2 411.49,477.03 511.69,468.67 543.1,482.57 			"/>
		</g>
	</g>
</g>
</svg>
